<svg version="1.2" xmlns="http://www.w3.org/2000/svg" viewBox="0 0 1509 395" width="1509" height="395">
	<style>
		.s0 { fill: #ffffff } 
	</style>
	<g id="Layer 1">
		<path fill-rule="evenodd" class="s0" d="m1506 130h-75l-29 36-3-1v-35h-89l38 36-1 226 65-91-13-17v-76l23-26 19-1 1 31zm-312 0l-54 47h86l23 20v5l-109 40-1 68 63 45 47-39 21 34 52-36-21-21v-121l-50-42zm54 107v49l-27 19-30-22v-20l2-2zm-1018-93l37 35v122l59 46 54 3 56-48-83-1-34-27v-95l40-2 26 19-42 29v44l94-59-1-35-62-48zm211-14l37 33v119l-13 17 64 88 1-187 20-19 20 18v58l26 93 27-93v-57l20-19 20 18v190l64-89-12-17-1-110-50-47-46 44-46-44-41 37-1-33zm380-7l-77 53v125l91 56 77-53v-126zm-24 44l63 38v106h-3l-61-38zm-795-132l89 82-7-33 60 1v190l-17 18 74 99v-307l60-1-7 33 89-82zm1125-33l-73 56-1 90-33-24-80 52v127l81 51 32-27 3 23 89-1-39-34v-253zm-74 162l1 149-63-39v-71z"/>
	</g>
</svg>